<svg width="20" height="28" viewBox="0 0 20 28" fill="none" xmlns="http://www.w3.org/2000/svg">
<path d="M15.7056 19.9452C16.455 21.7035 17.1859 23.4357 17.9352 25.1554C18.1003 25.5345 18.0806 25.7476 17.7499 25.9436C17.2084 26.2646 16.6781 26.619 16.158 26.9917C15.903 27.1745 15.7716 27.1126 15.6412 26.8008C14.9265 25.0927 14.2033 23.39 13.4802 21.6874C12.3325 18.985 11.1828 16.2839 10.0324 13.5832C9.98135 13.4633 9.91532 13.3534 9.81291 13.1547C9.5975 13.4195 9.39841 13.652 9.21022 13.8975C8.22779 15.1793 7.24906 16.4655 6.26718 17.748C5.61544 18.5992 4.95474 19.4399 4.31036 20.2998C4.09347 20.5892 3.9281 20.5979 3.7027 20.3124C3.27288 19.7681 2.82973 19.2388 2.37459 18.7276C2.15019 18.4756 2.18526 18.3074 2.3787 18.0582C3.74264 16.3009 5.0968 14.5318 6.4536 12.7659C6.51954 12.6801 6.58103 12.589 6.69423 12.4311C6.54159 12.3921 6.44545 12.3569 6.34745 12.3442C4.38959 12.0898 2.43139 11.8397 0.473584 11.5847C-0.0328121 11.5187 -0.0299488 11.5129 0.0233498 10.8617C0.0792997 10.1781 0.136668 9.49454 0.180633 8.80969C0.205186 8.42722 0.303083 8.24556 0.656923 8.29895C2.14851 8.52403 3.6428 8.72198 5.13703 8.91876C6.01229 9.03403 6.88921 9.12966 7.76565 9.23052C7.87101 9.24264 7.97805 9.23217 8.17001 9.23217C8.02538 8.87378 7.91638 8.59115 7.79876 8.31423C6.89769 6.19275 6.00112 4.06822 5.08722 1.95538C4.9165 1.56068 4.92999 1.34769 5.28153 1.14472C5.82531 0.83076 6.35049 0.463692 6.87206 0.0938426C7.11256 -0.0767005 7.23437 -0.0152604 7.35931 0.281982C8.16196 2.19154 8.97511 4.09421 9.7861 5.99829C9.99157 6.4807 10.2017 6.96 10.4311 7.4902C10.5762 7.33269 10.6923 7.22545 10.7907 7.09701C12.2549 5.18536 13.7213 3.27618 15.1749 1.35186C15.4154 1.0335 15.58 1.01224 15.8288 1.33405C16.2368 1.86165 16.668 2.36335 17.1088 2.84832C17.3541 3.11803 17.3386 3.30673 17.1183 3.59136C15.6375 5.50506 14.1681 7.43266 12.6953 9.35621C12.6044 9.47494 12.5168 9.59759 12.336 9.84261C14.7608 10.1616 17.0803 10.4667 19.4505 10.7785C19.4205 11.1524 19.3935 11.4795 19.3681 11.8068C19.3222 12.3997 19.2671 12.9919 19.2357 13.586C19.2171 13.9362 19.0752 14.0265 18.8249 13.9897C18.0963 13.8826 17.3677 13.7749 16.638 13.6801C15.4709 13.5285 14.303 13.3864 13.1351 13.2433C13.079 13.2365 13.0206 13.2586 12.8774 13.2802C13.831 15.5265 14.7624 17.7206 15.7056 19.9452Z" fill="#6D9075"/>
</svg>
